<svg width="9" height="18" viewBox="0 0 9 18" fill="none" xmlns="http://www.w3.org/2000/svg">
<path d="M0.906069 17.67C0.716069 17.67 0.526069 17.6 0.376069 17.45C0.0860693 17.16 0.0860693 16.68 0.376069 16.39L6.89607 9.86999C7.37607 9.38999 7.37607 8.60999 6.89607 8.12999L0.376069 1.60999C0.0860693 1.31999 0.0860693 0.839989 0.376069 0.549989C0.666069 0.259989 1.14607 0.259989 1.43607 0.549989L7.95607 7.06999C8.46607 7.57999 8.75607 8.26999 8.75607 8.99999C8.75607 9.72999 8.47607 10.42 7.95607 10.93L1.43607 17.45C1.28607 17.59 1.09607 17.67 0.906069 17.67Z" fill="white"/>
</svg>
