<svg width="25" height="25" viewBox="0 0 25 25" fill="none" xmlns="http://www.w3.org/2000/svg">
<path d="M17.1495 9.23835L8.66423 17.7236C8.37432 18.0135 7.89349 18.0135 7.60357 17.7236C7.31366 17.4337 7.31366 16.9529 7.60357 16.663L16.0889 8.17769C16.3788 7.88777 16.8596 7.88777 17.1495 8.17769C17.4394 8.4676 17.4394 8.94843 17.1495 9.23835Z" fill="#292D32"/>
<path d="M17.1495 17.7236C16.8596 18.0135 16.3788 18.0135 16.0889 17.7236L7.60357 9.23834C7.31366 8.94842 7.31366 8.46759 7.60357 8.17768C7.89349 7.88776 8.37432 7.88776 8.66423 8.17768L17.1495 16.663C17.4394 16.9529 17.4394 17.4337 17.1495 17.7236Z" fill="#292D32"/>
</svg>
