<svg width="25" height="25" viewBox="0 0 25 25" fill="none" xmlns="http://www.w3.org/2000/svg">
<path opacity="0.6" d="M22.4243 13.2919C22.232 13.0729 22.1259 12.7915 22.1259 12.5C22.1259 12.2086 22.232 11.9271 22.4243 11.7081L23.9601 9.98034C24.1294 9.79157 24.2345 9.55404 24.2603 9.30184C24.2862 9.04964 24.2315 8.79573 24.1041 8.57653L21.7044 4.4251C21.5783 4.20615 21.3863 4.0326 21.1558 3.92919C20.9253 3.82577 20.668 3.79777 20.4206 3.84918L18.1649 4.30511C17.8779 4.36442 17.5791 4.31662 17.3249 4.17073C17.0707 4.02485 16.8787 3.79096 16.7851 3.51322L16.0532 1.31752C15.9727 1.07921 15.8194 0.872219 15.6148 0.725812C15.4103 0.579404 15.1649 0.500982 14.9134 0.501632H10.114C9.85237 0.487975 9.59345 0.560335 9.3768 0.707661C9.16014 0.854986 8.99766 1.06918 8.91418 1.31752L8.24227 3.51322C8.14869 3.79096 7.95668 4.02485 7.70248 4.17073C7.44828 4.31662 7.14948 4.36442 6.86246 4.30511L4.54677 3.84918C4.31227 3.81604 4.0732 3.85304 3.85968 3.95553C3.64617 4.05802 3.46776 4.2214 3.34694 4.4251L0.947264 8.57653C0.816674 8.79328 0.757956 9.04577 0.779506 9.2979C0.801056 9.55003 0.901769 9.7889 1.06725 9.98034L2.59104 11.7081C2.7834 11.9271 2.88948 12.2086 2.88948 12.5C2.88948 12.7915 2.7834 13.0729 2.59104 13.2919L1.06725 15.0197C0.901769 15.2111 0.801056 15.45 0.779506 15.7021C0.757956 15.9542 0.816674 16.2067 0.947264 16.4235L3.34694 20.5749C3.47304 20.7938 3.66504 20.9674 3.89557 21.0708C4.12609 21.1742 4.38339 21.2022 4.63076 21.1508L6.88646 20.6949C7.17348 20.6356 7.47228 20.6834 7.72648 20.8293C7.98067 20.9752 8.17268 21.209 8.26627 21.4868L8.99817 23.6825C9.08165 23.9308 9.24413 24.145 9.46078 24.2923C9.67744 24.4397 9.93636 24.512 10.198 24.4984H14.9974C15.2489 24.499 15.4943 24.4206 15.6988 24.2742C15.9034 24.1278 16.0567 23.9208 16.1372 23.6825L16.8691 21.4868C16.9627 21.209 17.1547 20.9752 17.4089 20.8293C17.6631 20.6834 17.9619 20.6356 18.2489 20.6949L20.5046 21.1508C20.752 21.2022 21.0093 21.1742 21.2398 21.0708C21.4703 20.9674 21.6623 20.7938 21.7884 20.5749L24.1881 16.4235C24.3155 16.2043 24.3702 15.9504 24.3443 15.6982C24.3184 15.446 24.2134 15.2084 24.0441 15.0197L22.4243 13.2919ZM20.6366 14.8997L21.5965 15.9795L20.0607 18.6432L18.6449 18.3552C17.7807 18.1786 16.8818 18.3254 16.1187 18.7677C15.3556 19.2101 14.7816 19.9172 14.5054 20.7549L14.0495 22.0987H10.9779L10.546 20.7309C10.2698 19.8932 9.69573 19.1861 8.93266 18.7437C8.1696 18.3014 7.27067 18.1546 6.40652 18.3312L4.99071 18.6192L3.43093 15.9675L4.3908 14.8877C4.98106 14.2277 5.30739 13.3734 5.30739 12.488C5.30739 11.6026 4.98106 10.7483 4.3908 10.0883L3.43093 9.00848L4.96672 6.36883L6.38252 6.65679C7.24667 6.83344 8.1456 6.68665 8.90867 6.24429C9.67173 5.80193 10.2458 5.0948 10.522 4.25712L10.9779 2.90131H14.0495L14.5054 4.26912C14.7816 5.1068 15.3556 5.81393 16.1187 6.25629C16.8818 6.69865 17.7807 6.84544 18.6449 6.66879L20.0607 6.38083L21.5965 9.04447L20.6366 10.1243C20.0529 10.7827 19.7307 11.6321 19.7307 12.512C19.7307 13.3919 20.0529 14.2413 20.6366 14.8997ZM12.5137 7.70065C11.5645 7.70065 10.6366 7.98213 9.84732 8.50949C9.05807 9.03685 8.44292 9.7864 8.07967 10.6634C7.71642 11.5403 7.62138 12.5053 7.80656 13.4363C7.99175 14.3673 8.44884 15.2225 9.12004 15.8937C9.79124 16.5649 10.6464 17.0219 11.5774 17.2071C12.5084 17.3923 13.4734 17.2973 14.3503 16.934C15.2273 16.5708 15.9768 15.9556 16.5042 15.1664C17.0316 14.3771 17.313 13.4492 17.313 12.5C17.313 11.2271 16.8074 10.0064 15.9073 9.10635C15.0073 8.2063 13.7866 7.70065 12.5137 7.70065ZM12.5137 14.8997C12.0391 14.8997 11.5751 14.7589 11.1805 14.4953C10.7859 14.2316 10.4783 13.8568 10.2967 13.4183C10.1151 12.9798 10.0675 12.4973 10.1601 12.0318C10.2527 11.5664 10.4813 11.1388 10.8169 10.8032C11.1525 10.4676 11.58 10.239 12.0455 10.1464C12.511 10.0538 12.9935 10.1014 13.432 10.283C13.8705 10.4646 14.2453 10.7722 14.5089 11.1668C14.7726 11.5614 14.9134 12.0254 14.9134 12.5C14.9134 13.1364 14.6605 13.7468 14.2105 14.1968C13.7605 14.6469 13.1501 14.8997 12.5137 14.8997Z" fill="#333333"/>
</svg>
