<svg width="20" height="24" viewBox="0 0 20 24" fill="none" xmlns="http://www.w3.org/2000/svg">
<path opacity="0.6" d="M12.6 19.2C13.1 19.2 13.5252 19.0248 13.8756 18.6744C14.226 18.324 14.4008 17.8992 14.4 17.4C14.4 16.9 14.2248 16.4748 13.8744 16.1244C13.524 15.774 13.0992 15.5992 12.6 15.6C12.1 15.6 11.6748 15.7752 11.3244 16.1256C10.974 16.476 10.7992 16.9008 10.8 17.4C10.8 17.9 10.9752 18.3252 11.3256 18.6756C11.676 19.026 12.1008 19.2008 12.6 19.2ZM6.54 19.14L14.34 11.34L12.66 9.66L4.86 17.46L6.54 19.14ZM6.6 13.2C7.1 13.2 7.5252 13.0248 7.8756 12.6744C8.226 12.324 8.4008 11.8992 8.4 11.4C8.4 10.9 8.2248 10.4748 7.8744 10.1244C7.524 9.774 7.0992 9.5992 6.6 9.6C6.1 9.6 5.6748 9.7752 5.3244 10.1256C4.974 10.476 4.7992 10.9008 4.8 11.4C4.8 11.9 4.9752 12.3252 5.3256 12.6756C5.676 13.026 6.1008 13.2008 6.6 13.2ZM9.6 24C6.86 24 4.5748 23.06 2.7444 21.18C0.914001 19.3 -0.000799476 16.96 5.24246e-07 14.16C5.24246e-07 12.16 0.7952 9.9848 2.3856 7.6344C3.976 5.284 6.3808 2.7392 9.6 0C12.82 2.74 15.2252 5.2852 16.8156 7.6356C18.406 9.986 19.2008 12.1608 19.2 14.16C19.2 16.96 18.2848 19.3 16.4544 21.18C14.624 23.06 12.3392 24 9.6 24ZM9.6 21.6C11.68 21.6 13.4 20.8948 14.76 19.4844C16.12 18.074 16.8 16.2992 16.8 14.16C16.8 12.7 16.1948 11.05 14.9844 9.21C13.774 7.37 11.9792 5.36 9.6 3.18C7.22 5.36 5.4252 7.37 4.2156 9.21C3.006 11.05 2.4008 12.7 2.4 14.16C2.4 16.3 3.08 18.0752 4.44 19.4856C5.8 20.896 7.52 21.6008 9.6 21.6Z" fill="white"/>
</svg>
