<svg width="17" height="17" viewBox="0 0 17 17" fill="none" xmlns="http://www.w3.org/2000/svg">
<path d="M10.3766 16.1173H6.37663C2.75663 16.1173 1.20996 14.5706 1.20996 10.9506V6.95065C1.20996 3.33065 2.75663 1.78398 6.37663 1.78398H7.70996C7.98329 1.78398 8.20996 2.01065 8.20996 2.28398C8.20996 2.55731 7.98329 2.78398 7.70996 2.78398H6.37663C3.30329 2.78398 2.20996 3.87731 2.20996 6.95065V10.9506C2.20996 14.024 3.30329 15.1173 6.37663 15.1173H10.3766C13.45 15.1173 14.5433 14.024 14.5433 10.9506V9.61731C14.5433 9.34398 14.77 9.11731 15.0433 9.11731C15.3166 9.11731 15.5433 9.34398 15.5433 9.61731V10.9506C15.5433 14.5706 13.9966 16.1173 10.3766 16.1173Z" fill="#292D32"/>
<path d="M6.04335 12.744C5.63668 12.744 5.26335 12.5973 4.99001 12.3306C4.66335 12.004 4.52335 11.5306 4.59668 11.0306L4.88335 9.02398C4.93668 8.63731 5.19001 8.13731 5.46335 7.86398L10.7167 2.61065C12.0433 1.28398 13.39 1.28398 14.7167 2.61065C15.4433 3.33731 15.77 4.07731 15.7033 4.81731C15.6433 5.41731 15.3233 6.00398 14.7167 6.60398L9.46335 11.8573C9.19001 12.1306 8.69001 12.384 8.30335 12.4373L6.29668 12.724C6.21001 12.744 6.12335 12.744 6.04335 12.744ZM11.4233 3.31731L6.17001 8.57065C6.04335 8.69731 5.89668 8.99065 5.87001 9.16398L5.58335 11.1706C5.55668 11.364 5.59668 11.524 5.69668 11.624C5.79668 11.724 5.95668 11.764 6.15001 11.7373L8.15668 11.4506C8.33001 11.424 8.63001 11.2773 8.75001 11.1506L14.0033 5.89731C14.4367 5.46398 14.6633 5.07731 14.6967 4.71731C14.7367 4.28398 14.51 3.82398 14.0033 3.31065C12.9367 2.24398 12.2033 2.54398 11.4233 3.31731Z" fill="#292D32"/>
<path d="M13.61 7.50399C13.5633 7.50399 13.5167 7.49733 13.4767 7.48399C11.7233 6.99066 10.33 5.59733 9.83666 3.84399C9.76333 3.57733 9.91667 3.30399 10.1833 3.22399C10.45 3.15066 10.7233 3.30399 10.7967 3.57066C11.1967 4.99066 12.3233 6.11733 13.7433 6.51733C14.01 6.59066 14.1633 6.87066 14.09 7.13733C14.03 7.36399 13.83 7.50399 13.61 7.50399Z" fill="#292D32"/>
</svg>
