<svg width="28" height="28" viewBox="0 0 28 28" fill="none" xmlns="http://www.w3.org/2000/svg">
<path opacity="0.6" d="M2 7.33333V6C2 4.93913 2.42143 3.92172 3.17157 3.17157C3.92172 2.42143 4.93913 2 6 2H22C23.0609 2 24.0783 2.42143 24.8284 3.17157C25.5786 3.92172 26 4.93913 26 6V7.33333M19.3333 10V18M24.6667 11.3333V16.6667M14 8V20M8.66667 10V18M3.33333 11.3333V16.6667M2 20.6667V22C2 23.0609 2.42143 24.0783 3.17157 24.8284C3.92172 25.5786 4.93913 26 6 26H22C23.0609 26 24.0783 25.5786 24.8284 24.8284C25.5786 24.0783 26 23.0609 26 22V20.6667" stroke="white" stroke-width="2.5" stroke-linecap="round" stroke-linejoin="round"/>
</svg>
