<svg width="23" height="24" viewBox="0 0 23 24" fill="none" xmlns="http://www.w3.org/2000/svg">
<path opacity="0.6" d="M12.4352 24L10.0725 23.2539L10.57 21.6373C10.6943 21.1399 10.7358 20.6578 10.6943 20.1911C10.6529 19.7244 10.487 19.2531 10.1969 18.7772C9.67876 17.9896 9.35254 17.176 9.21824 16.3362C9.08394 15.4964 9.16145 14.6106 9.45078 13.6788L9.94819 12.0622L12.3109 12.8083L11.8135 14.4249C11.6477 14.9016 11.5959 15.394 11.658 15.9022C11.7202 16.4104 11.8964 16.8713 12.1865 17.285C12.6632 18.0725 12.9795 18.9016 13.1353 19.772C13.2912 20.6425 13.2236 21.513 12.9326 22.3834L12.4352 24ZM6.96373 24L4.60104 23.2539L5.09845 21.6373C5.2228 21.1606 5.26425 20.6736 5.2228 20.1762C5.18135 19.6788 5.01555 19.2124 4.72539 18.7772C4.18653 18.0104 3.85492 17.1917 3.73057 16.3212C3.60622 15.4508 3.68912 14.5699 3.97928 13.6788L4.47669 12.0622L6.83938 12.8083L6.34197 14.4249C6.17617 14.9016 6.12435 15.399 6.18653 15.9171C6.24871 16.4352 6.42487 16.8912 6.71503 17.285C7.21244 18.0311 7.53368 18.8551 7.67876 19.7571C7.82384 20.6591 7.7513 21.5345 7.46114 22.3834L6.96373 24ZM17.7824 24L15.4197 23.2539L15.9171 21.6373C16.0415 21.1606 16.0829 20.6736 16.0415 20.1762C16 19.6788 15.8342 19.2124 15.544 18.7772C15.0052 18.0104 14.6736 17.1917 14.5492 16.3212C14.4249 15.4508 14.5078 14.5699 14.7979 13.6788L15.2953 12.0622L17.658 12.8083L17.1606 14.4249C16.9948 14.9223 16.943 15.4143 17.0052 15.9009C17.0674 16.3876 17.2435 16.8489 17.5337 17.285C18.0311 18.0725 18.3474 18.9016 18.4825 19.772C18.6176 20.6425 18.5501 21.513 18.2798 22.3834L17.7824 24ZM2.48705 2.48705V3.73057H19.8964V2.48705H2.48705ZM6.34197 6.21762L6.71503 7.46114H15.6684L16.0415 6.21762H6.34197ZM6.71503 9.94819C6.17617 9.94819 5.68912 9.78736 5.25389 9.4657C4.81866 9.14404 4.51814 8.72456 4.35233 8.20725L3.73057 6.21762H2.48705C1.80311 6.21762 1.21741 5.9743 0.72995 5.48767C0.242489 5.00104 -0.000826904 4.41534 2.11125e-06 3.73057V0H22.3834V3.73057C22.3834 4.41451 22.1397 5.00021 21.6522 5.48767C21.1648 5.97513 20.5795 6.21845 19.8964 6.21762H18.6529L17.8446 8.33161C17.658 8.80829 17.3575 9.1971 16.943 9.49803C16.5285 9.79896 16.0622 9.94902 15.544 9.94819H6.71503Z" fill="white"/>
</svg>
