<svg width="24" height="24" viewBox="0 0 24 24" fill="none" xmlns="http://www.w3.org/2000/svg">
<path opacity="0.6" d="M9.42704 13.0779V3.42801C9.42704 2.51885 9.06587 1.64692 8.42299 1.00404C7.78012 0.361165 6.90819 0 5.99902 0C5.08986 0 4.21793 0.361165 3.57505 1.00404C2.93217 1.64692 2.57101 2.51885 2.57101 3.42801V13.0779C1.52291 13.8077 0.735071 14.8529 0.322167 16.0615C-0.0907372 17.2701 -0.107158 18.5789 0.275295 19.7974C0.657748 21.016 1.41911 22.0807 2.44858 22.8365C3.47804 23.5924 4.72186 24 5.99902 24C7.27618 24 8.52001 23.5924 9.54947 22.8365C10.5789 22.0807 11.3403 21.016 11.7227 19.7974C12.1052 18.5789 12.0888 17.2701 11.6759 16.0615C11.263 14.8529 10.4751 13.8077 9.42704 13.0779ZM5.99902 1.71401C6.45361 1.71401 6.88957 1.89459 7.21101 2.21603C7.53245 2.53747 7.71303 2.97343 7.71303 3.42801V9.42704H4.28502V3.42801C4.28502 2.97343 4.4656 2.53747 4.78704 2.21603C5.10848 1.89459 5.54444 1.71401 5.99902 1.71401ZM5.99902 22.2821C5.05578 22.282 4.1389 21.9708 3.39059 21.3965C2.64228 20.8223 2.10434 20.0172 1.86021 19.1061C1.61607 18.195 1.67939 17.2288 2.04033 16.3574C2.40127 15.4859 3.03967 14.7579 3.85651 14.2862L4.28502 14.0463V11.141H7.71303V14.0463L8.14153 14.2862C8.95838 14.7579 9.59678 15.4859 9.95772 16.3574C10.3187 17.2288 10.382 18.195 10.1378 19.1061C9.89371 20.0172 9.35577 20.8223 8.60746 21.3965C7.85914 21.9708 6.94227 22.282 5.99902 22.2821ZM15.4261 1.71401H23.9961V3.42801H15.4261V1.71401ZM15.4261 6.85603H21.4251V8.57003H15.4261V6.85603ZM15.4261 11.998H23.9961V13.7121H15.4261V11.998ZM15.4261 17.1401H21.4251V18.8541H15.4261V17.1401Z" fill="white"/>
</svg>
